<mxfile host="app.diagrams.net" modified="2023-08-19T15:07:40.971Z" agent="Mozilla/5.0 (Windows NT 10.0; Win64; x64) AppleWebKit/537.36 (KHTML, like Gecko) Chrome/115.0.0.0 Safari/537.36" etag="lt6gzJtFFhduaYinimms" version="21.6.8" type="github">
  <diagram name="Страница — 1" id="_VSpqTwkLKGjPauDzKXV">
    <mxGraphModel dx="1479" dy="754" grid="0" gridSize="10" guides="1" tooltips="1" connect="1" arrows="1" fold="1" page="1" pageScale="1" pageWidth="1169" pageHeight="827" math="0" shadow="0">
      <root>
        <mxCell id="0" />
        <mxCell id="1" parent="0" />
        <mxCell id="2" value="USER" style="shape=table;startSize=75;container=1;collapsible=0;childLayout=tableLayout;fixedRows=1;rowLines=1;fontStyle=1;align=center;resizeLast=1;fillColor=#d5e8d4;strokeColor=#82b366;" parent="1" vertex="1">
          <mxGeometry x="287" y="44" width="100" height="70" as="geometry" />
        </mxCell>
        <mxCell id="3" value="TEST" style="shape=table;startSize=75;container=1;collapsible=0;childLayout=tableLayout;fixedRows=1;rowLines=1;fontStyle=1;align=center;resizeLast=1;fillColor=#d5e8d4;strokeColor=#82b366;" parent="1" vertex="1">
          <mxGeometry x="287" y="219" width="100" height="75" as="geometry" />
        </mxCell>
        <mxCell id="4" value="CATEGORY" style="shape=table;startSize=75;container=1;collapsible=0;childLayout=tableLayout;fixedRows=1;rowLines=1;fontStyle=1;align=center;resizeLast=1;fillColor=#fff2cc;strokeColor=#d6b656;" parent="1" vertex="1">
          <mxGeometry x="227" y="394" width="100" height="75" as="geometry" />
        </mxCell>
        <mxCell id="5" value="QUESTION" style="shape=table;startSize=75;container=1;collapsible=0;childLayout=tableLayout;fixedRows=1;rowLines=1;fontStyle=1;align=center;resizeLast=1;fillColor=#ffe6cc;strokeColor=#d79b00;" parent="1" vertex="1">
          <mxGeometry x="387" y="394" width="100" height="75" as="geometry" />
        </mxCell>
        <mxCell id="6" value="ANSWER" style="shape=table;startSize=75;container=1;collapsible=0;childLayout=tableLayout;fixedRows=1;rowLines=1;fontStyle=1;align=center;resizeLast=1;fillColor=#e1d5e7;strokeColor=#9673a6;" parent="1" vertex="1">
          <mxGeometry x="387" y="569" width="100" height="75" as="geometry" />
        </mxCell>
        <mxCell id="7" value="" style="curved=1;startArrow=ERzeroToMany;startSize=10;;endArrow=ERzeroToMany;endSize=10;;exitX=0.5;exitY=1;entryX=0.5;entryY=0;startFill=0;shadow=0;endFill=0;" parent="1" source="2" target="3" edge="1">
          <mxGeometry relative="1" as="geometry">
            <Array as="points" />
          </mxGeometry>
        </mxCell>
        <mxCell id="8" value="" style="startArrow=ERzeroToMany;startSize=10;;endArrow=ERmandOne;endSize=10;;exitX=0.166;exitY=1;startFill=0;endFill=0;exitDx=0;exitDy=0;exitPerimeter=0;rounded=0;" parent="1" source="3" edge="1">
          <mxGeometry relative="1" as="geometry">
            <Array as="points">
              <mxPoint x="304" y="324" />
              <mxPoint x="304" y="354" />
            </Array>
            <mxPoint x="304" y="394" as="targetPoint" />
          </mxGeometry>
        </mxCell>
        <mxCell id="9" value="" style="curved=1;startArrow=ERmandOne;startSize=10;;endArrow=ERzeroToMany;endSize=10;;exitX=0.9285714285714286;exitY=1;entryX=0.5;entryY=0;endFill=0;" parent="1" source="3" target="5" edge="1">
          <mxGeometry relative="1" as="geometry">
            <Array as="points">
              <mxPoint x="437" y="344" />
            </Array>
          </mxGeometry>
        </mxCell>
        <mxCell id="10" value="" style="curved=1;startArrow=ERmandOne;startSize=10;;endArrow=ERzeroToMany;endSize=10;;exitX=0.5;exitY=1;entryX=0.5;entryY=0;endFill=0;" parent="1" source="5" target="6" edge="1">
          <mxGeometry relative="1" as="geometry">
            <Array as="points" />
          </mxGeometry>
        </mxCell>
        <mxCell id="U9gus0ujw4nKWONplqQA-10" value="TestsUser" style="shape=table;startSize=75;container=1;collapsible=0;childLayout=tableLayout;fixedRows=1;rowLines=1;fontStyle=1;align=center;resizeLast=1;fillColor=#dae8fc;strokeColor=#6c8ebf;" vertex="1" parent="1">
          <mxGeometry x="437" y="134" width="100" height="75" as="geometry" />
        </mxCell>
        <mxCell id="U9gus0ujw4nKWONplqQA-13" value="" style="curved=1;startArrow=ERmandOne;startSize=10;;endArrow=ERzeroToMany;endSize=10;;entryX=1;entryY=0.5;entryDx=0;entryDy=0;exitX=0.5;exitY=0;exitDx=0;exitDy=0;startFill=0;endFill=0;" edge="1" parent="1" source="U9gus0ujw4nKWONplqQA-10" target="2">
          <mxGeometry relative="1" as="geometry">
            <Array as="points">
              <mxPoint x="467" y="82" />
            </Array>
            <mxPoint x="487" y="124" as="sourcePoint" />
            <mxPoint x="444" y="164" as="targetPoint" />
          </mxGeometry>
        </mxCell>
        <mxCell id="U9gus0ujw4nKWONplqQA-14" value="" style="curved=1;startArrow=ERmandOne;startSize=10;;endArrow=ERzeroToMany;endSize=10;;entryX=1;entryY=0.5;entryDx=0;entryDy=0;exitX=0.5;exitY=1;exitDx=0;exitDy=0;startFill=0;endFill=0;" edge="1" parent="1" source="U9gus0ujw4nKWONplqQA-10">
          <mxGeometry relative="1" as="geometry">
            <Array as="points">
              <mxPoint x="467" y="257" />
            </Array>
            <mxPoint x="487" y="309" as="sourcePoint" />
            <mxPoint x="387" y="254" as="targetPoint" />
          </mxGeometry>
        </mxCell>
      </root>
    </mxGraphModel>
  </diagram>
</mxfile>
